<?xml version="1.0" encoding="UTF-8"?>
<svg xmlns="http://www.w3.org/2000/svg" viewBox="0 0 262.28 270.74" role="img" aria-label="Angelo Baleno mark (one-color bone)">
  <title>Angelo Baleno mark (one-color bone)</title>
  <path fill="#F4F1EA" d="M30.65,162.4C2.73,184.94-1.65,194.3.45,198.49c6.84,13.66,90.58-11.09,158.89-46.53,48.8-25.32,108.15-65.64,102.57-77.95-2.2-4.86-14.95-6.27-52.27,2.41,8.14-.74,21.3-1.27,23.43,3.95,4.89,11.99-51.3,47.15-95.43,68.49-43.79,21.17-107.89,44.28-114.96,32.03-2.44-4.22,2.41-11.78,7.97-18.5Z"/>
  <path fill="#F4F1EA" d="M213.82,0c-10.75,32.47-21.49,64.94-32.24,97.41h27c-11.14,7.68-23.18,15.37-36.13,22.89-32.13,18.64-62.96,32.17-90.61,42.11h-30.17c24.93-19.53,51.53-42.4,78.68-69C163.36,61.06,190.96,29.27,213.82,0Z"/>
  <path fill="#F4F1EA" d="M79.12,195.98c13.15-4.42,27.1-9.63,41.64-15.81,16.85-7.16,32.24-14.65,46.15-22.09-18.71,15.17-38.69,32.85-59.11,53.31-20.47,20.51-38.14,40.57-53.29,59.35,8.21-24.92,16.41-49.84,24.62-74.76Z"/>
</svg>
